<mxfile host="app.diagrams.net" agent="Mozilla/5.0 (Windows NT 10.0; Win64; x64) AppleWebKit/537.36 (KHTML, like Gecko) Chrome/135.0.0.0 Safari/537.36 Edg/135.0.0.0" version="26.2.8">
  <diagram name="PÃ¡gina-1" id="1IgTHfMQWsKtIobFBTyV">
    <mxGraphModel dx="1247" dy="548" grid="1" gridSize="10" guides="1" tooltips="1" connect="1" arrows="1" fold="1" page="1" pageScale="1" pageWidth="827" pageHeight="1169" math="0" shadow="0">
      <root>
        <mxCell id="0" />
        <mxCell id="1" parent="0" />
        <mxCell id="x1Jo5kKZt7iRQHBq_oOY-5" value="Carro" style="swimlane;fontStyle=1;align=center;verticalAlign=top;childLayout=stackLayout;horizontal=1;startSize=26;horizontalStack=0;resizeParent=1;resizeParentMax=0;resizeLast=0;collapsible=1;marginBottom=0;whiteSpace=wrap;html=1;" vertex="1" parent="1">
          <mxGeometry x="260" y="28" width="180" height="260" as="geometry" />
        </mxCell>
        <mxCell id="x1Jo5kKZt7iRQHBq_oOY-6" value="- motor : Motor&lt;div&gt;- llantas : Llanta&lt;/div&gt;&lt;div&gt;- encendido : boolean&lt;/div&gt;&lt;div&gt;- velocidadActual : int&lt;/div&gt;&lt;div&gt;- haPatinado : boolean&lt;/div&gt;&lt;div&gt;- seHaAccidentado : boolean&lt;/div&gt;" style="text;strokeColor=none;fillColor=none;align=left;verticalAlign=top;spacingLeft=4;spacingRight=4;overflow=hidden;rotatable=0;points=[[0,0.5],[1,0.5]];portConstraint=eastwest;whiteSpace=wrap;html=1;" vertex="1" parent="x1Jo5kKZt7iRQHBq_oOY-5">
          <mxGeometry y="26" width="180" height="114" as="geometry" />
        </mxCell>
        <mxCell id="x1Jo5kKZt7iRQHBq_oOY-7" value="" style="line;strokeWidth=1;fillColor=none;align=left;verticalAlign=middle;spacingTop=-1;spacingLeft=3;spacingRight=3;rotatable=0;labelPosition=right;points=[];portConstraint=eastwest;strokeColor=inherit;" vertex="1" parent="x1Jo5kKZt7iRQHBq_oOY-5">
          <mxGeometry y="140" width="180" height="8" as="geometry" />
        </mxCell>
        <mxCell id="x1Jo5kKZt7iRQHBq_oOY-8" value="+ encender() : void&lt;div&gt;+ apagar() : void&lt;/div&gt;&lt;div&gt;+ acelerar(kmh : int) : void&lt;/div&gt;&lt;div&gt;+ frenar(kmh : int) : void&lt;/div&gt;&lt;div&gt;+ frenarBruscamente(kmh : int) : void&lt;/div&gt;&lt;div&gt;+ mostrarEstado() : void&lt;/div&gt;&lt;div&gt;&lt;br&gt;&lt;/div&gt;" style="text;strokeColor=none;fillColor=none;align=left;verticalAlign=top;spacingLeft=4;spacingRight=4;overflow=hidden;rotatable=0;points=[[0,0.5],[1,0.5]];portConstraint=eastwest;whiteSpace=wrap;html=1;" vertex="1" parent="x1Jo5kKZt7iRQHBq_oOY-5">
          <mxGeometry y="148" width="180" height="112" as="geometry" />
        </mxCell>
        <mxCell id="x1Jo5kKZt7iRQHBq_oOY-9" value="&amp;lt;&amp;lt;Abstract&amp;gt;&amp;gt;Motor" style="swimlane;fontStyle=1;align=center;verticalAlign=top;childLayout=stackLayout;horizontal=1;startSize=26;horizontalStack=0;resizeParent=1;resizeParentMax=0;resizeLast=0;collapsible=1;marginBottom=0;whiteSpace=wrap;html=1;" vertex="1" parent="1">
          <mxGeometry x="170" y="370" width="170" height="86" as="geometry" />
        </mxCell>
        <mxCell id="x1Jo5kKZt7iRQHBq_oOY-10" value="# velocidadMaxima : int" style="text;strokeColor=none;fillColor=none;align=left;verticalAlign=top;spacingLeft=4;spacingRight=4;overflow=hidden;rotatable=0;points=[[0,0.5],[1,0.5]];portConstraint=eastwest;whiteSpace=wrap;html=1;" vertex="1" parent="x1Jo5kKZt7iRQHBq_oOY-9">
          <mxGeometry y="26" width="170" height="26" as="geometry" />
        </mxCell>
        <mxCell id="x1Jo5kKZt7iRQHBq_oOY-11" value="" style="line;strokeWidth=1;fillColor=none;align=left;verticalAlign=middle;spacingTop=-1;spacingLeft=3;spacingRight=3;rotatable=0;labelPosition=right;points=[];portConstraint=eastwest;strokeColor=inherit;" vertex="1" parent="x1Jo5kKZt7iRQHBq_oOY-9">
          <mxGeometry y="52" width="170" height="8" as="geometry" />
        </mxCell>
        <mxCell id="x1Jo5kKZt7iRQHBq_oOY-12" value="+ getVelocidadMaxima() : int" style="text;strokeColor=none;fillColor=none;align=left;verticalAlign=top;spacingLeft=4;spacingRight=4;overflow=hidden;rotatable=0;points=[[0,0.5],[1,0.5]];portConstraint=eastwest;whiteSpace=wrap;html=1;" vertex="1" parent="x1Jo5kKZt7iRQHBq_oOY-9">
          <mxGeometry y="60" width="170" height="26" as="geometry" />
        </mxCell>
        <mxCell id="x1Jo5kKZt7iRQHBq_oOY-13" value="" style="endArrow=diamondThin;endFill=1;endSize=24;html=1;rounded=0;exitX=0.553;exitY=-0.012;exitDx=0;exitDy=0;exitPerimeter=0;entryX=0.483;entryY=1.018;entryDx=0;entryDy=0;entryPerimeter=0;" edge="1" parent="1" source="x1Jo5kKZt7iRQHBq_oOY-9" target="x1Jo5kKZt7iRQHBq_oOY-8">
          <mxGeometry width="160" relative="1" as="geometry">
            <mxPoint x="250" y="330" as="sourcePoint" />
            <mxPoint x="410" y="330" as="targetPoint" />
          </mxGeometry>
        </mxCell>
        <mxCell id="x1Jo5kKZt7iRQHBq_oOY-14" value="1" style="text;html=1;align=center;verticalAlign=middle;resizable=0;points=[];autosize=1;strokeColor=none;fillColor=none;" vertex="1" parent="1">
          <mxGeometry x="285" y="288" width="30" height="30" as="geometry" />
        </mxCell>
        <mxCell id="x1Jo5kKZt7iRQHBq_oOY-15" value="1" style="text;html=1;align=center;verticalAlign=middle;resizable=0;points=[];autosize=1;strokeColor=none;fillColor=none;" vertex="1" parent="1">
          <mxGeometry x="275" y="348" width="30" height="30" as="geometry" />
        </mxCell>
        <mxCell id="x1Jo5kKZt7iRQHBq_oOY-16" value="&amp;lt;&amp;lt;Abstract&amp;gt;&amp;gt;&lt;span style=&quot;background-color: transparent; color: light-dark(rgb(0, 0, 0), rgb(255, 255, 255));&quot;&gt;Llanta&lt;/span&gt;" style="swimlane;fontStyle=1;align=center;verticalAlign=top;childLayout=stackLayout;horizontal=1;startSize=26;horizontalStack=0;resizeParent=1;resizeParentMax=0;resizeLast=0;collapsible=1;marginBottom=0;whiteSpace=wrap;html=1;" vertex="1" parent="1">
          <mxGeometry x="390" y="370" width="200" height="86" as="geometry" />
        </mxCell>
        <mxCell id="x1Jo5kKZt7iRQHBq_oOY-17" value="# limitePatinaje : int" style="text;strokeColor=none;fillColor=none;align=left;verticalAlign=top;spacingLeft=4;spacingRight=4;overflow=hidden;rotatable=0;points=[[0,0.5],[1,0.5]];portConstraint=eastwest;whiteSpace=wrap;html=1;" vertex="1" parent="x1Jo5kKZt7iRQHBq_oOY-16">
          <mxGeometry y="26" width="200" height="26" as="geometry" />
        </mxCell>
        <mxCell id="x1Jo5kKZt7iRQHBq_oOY-18" value="" style="line;strokeWidth=1;fillColor=none;align=left;verticalAlign=middle;spacingTop=-1;spacingLeft=3;spacingRight=3;rotatable=0;labelPosition=right;points=[];portConstraint=eastwest;strokeColor=inherit;" vertex="1" parent="x1Jo5kKZt7iRQHBq_oOY-16">
          <mxGeometry y="52" width="200" height="8" as="geometry" />
        </mxCell>
        <mxCell id="x1Jo5kKZt7iRQHBq_oOY-19" value="+ getLimitePatinaje() : int" style="text;strokeColor=none;fillColor=none;align=left;verticalAlign=top;spacingLeft=4;spacingRight=4;overflow=hidden;rotatable=0;points=[[0,0.5],[1,0.5]];portConstraint=eastwest;whiteSpace=wrap;html=1;" vertex="1" parent="x1Jo5kKZt7iRQHBq_oOY-16">
          <mxGeometry y="60" width="200" height="26" as="geometry" />
        </mxCell>
        <mxCell id="x1Jo5kKZt7iRQHBq_oOY-20" value="" style="endArrow=diamondThin;endFill=1;endSize=24;html=1;rounded=0;exitX=0.5;exitY=0;exitDx=0;exitDy=0;entryX=0.789;entryY=1.045;entryDx=0;entryDy=0;entryPerimeter=0;" edge="1" parent="1" source="x1Jo5kKZt7iRQHBq_oOY-16" target="x1Jo5kKZt7iRQHBq_oOY-8">
          <mxGeometry width="160" relative="1" as="geometry">
            <mxPoint x="470" y="320" as="sourcePoint" />
            <mxPoint x="630" y="320" as="targetPoint" />
          </mxGeometry>
        </mxCell>
        <mxCell id="x1Jo5kKZt7iRQHBq_oOY-21" value="1" style="text;html=1;align=center;verticalAlign=middle;resizable=0;points=[];autosize=1;strokeColor=none;fillColor=none;" vertex="1" parent="1">
          <mxGeometry x="425" y="288" width="30" height="30" as="geometry" />
        </mxCell>
        <mxCell id="x1Jo5kKZt7iRQHBq_oOY-22" value="1" style="text;html=1;align=center;verticalAlign=middle;resizable=0;points=[];autosize=1;strokeColor=none;fillColor=none;" vertex="1" parent="1">
          <mxGeometry x="435" y="338" width="30" height="30" as="geometry" />
        </mxCell>
        <mxCell id="x1Jo5kKZt7iRQHBq_oOY-23" value="Motor1000" style="swimlane;fontStyle=1;align=center;verticalAlign=top;childLayout=stackLayout;horizontal=1;startSize=26;horizontalStack=0;resizeParent=1;resizeParentMax=0;resizeLast=0;collapsible=1;marginBottom=0;whiteSpace=wrap;html=1;" vertex="1" parent="1">
          <mxGeometry x="-50" y="480" width="160" height="34" as="geometry" />
        </mxCell>
        <mxCell id="x1Jo5kKZt7iRQHBq_oOY-25" value="" style="line;strokeWidth=1;fillColor=none;align=left;verticalAlign=middle;spacingTop=-1;spacingLeft=3;spacingRight=3;rotatable=0;labelPosition=right;points=[];portConstraint=eastwest;strokeColor=inherit;" vertex="1" parent="x1Jo5kKZt7iRQHBq_oOY-23">
          <mxGeometry y="26" width="160" height="8" as="geometry" />
        </mxCell>
        <mxCell id="x1Jo5kKZt7iRQHBq_oOY-27" value="Motor2000" style="swimlane;fontStyle=1;align=center;verticalAlign=top;childLayout=stackLayout;horizontal=1;startSize=26;horizontalStack=0;resizeParent=1;resizeParentMax=0;resizeLast=0;collapsible=1;marginBottom=0;whiteSpace=wrap;html=1;" vertex="1" parent="1">
          <mxGeometry x="125" y="520" width="160" height="34" as="geometry" />
        </mxCell>
        <mxCell id="x1Jo5kKZt7iRQHBq_oOY-29" value="" style="line;strokeWidth=1;fillColor=none;align=left;verticalAlign=middle;spacingTop=-1;spacingLeft=3;spacingRight=3;rotatable=0;labelPosition=right;points=[];portConstraint=eastwest;strokeColor=inherit;" vertex="1" parent="x1Jo5kKZt7iRQHBq_oOY-27">
          <mxGeometry y="26" width="160" height="8" as="geometry" />
        </mxCell>
        <mxCell id="x1Jo5kKZt7iRQHBq_oOY-35" value="Motor3000" style="swimlane;fontStyle=1;align=center;verticalAlign=top;childLayout=stackLayout;horizontal=1;startSize=26;horizontalStack=0;resizeParent=1;resizeParentMax=0;resizeLast=0;collapsible=1;marginBottom=0;whiteSpace=wrap;html=1;" vertex="1" parent="1">
          <mxGeometry x="315" y="510" width="160" height="34" as="geometry" />
        </mxCell>
        <mxCell id="x1Jo5kKZt7iRQHBq_oOY-37" value="" style="line;strokeWidth=1;fillColor=none;align=left;verticalAlign=middle;spacingTop=-1;spacingLeft=3;spacingRight=3;rotatable=0;labelPosition=right;points=[];portConstraint=eastwest;strokeColor=inherit;" vertex="1" parent="x1Jo5kKZt7iRQHBq_oOY-35">
          <mxGeometry y="26" width="160" height="8" as="geometry" />
        </mxCell>
        <mxCell id="x1Jo5kKZt7iRQHBq_oOY-39" value="" style="endArrow=open;endFill=1;endSize=12;html=1;rounded=0;exitX=0.713;exitY=0;exitDx=0;exitDy=0;exitPerimeter=0;entryX=-0.006;entryY=0.269;entryDx=0;entryDy=0;entryPerimeter=0;" edge="1" parent="1" source="x1Jo5kKZt7iRQHBq_oOY-23" target="x1Jo5kKZt7iRQHBq_oOY-12">
          <mxGeometry width="160" relative="1" as="geometry">
            <mxPoint x="60" y="470" as="sourcePoint" />
            <mxPoint x="220" y="470" as="targetPoint" />
          </mxGeometry>
        </mxCell>
        <mxCell id="x1Jo5kKZt7iRQHBq_oOY-40" value="" style="endArrow=open;endFill=1;endSize=12;html=1;rounded=0;exitX=0.5;exitY=0;exitDx=0;exitDy=0;" edge="1" parent="1" source="x1Jo5kKZt7iRQHBq_oOY-27">
          <mxGeometry width="160" relative="1" as="geometry">
            <mxPoint x="140" y="500" as="sourcePoint" />
            <mxPoint x="260" y="460" as="targetPoint" />
          </mxGeometry>
        </mxCell>
        <mxCell id="x1Jo5kKZt7iRQHBq_oOY-41" value="" style="endArrow=open;endFill=1;endSize=12;html=1;rounded=0;exitX=0.438;exitY=0.012;exitDx=0;exitDy=0;exitPerimeter=0;entryX=0.871;entryY=1.192;entryDx=0;entryDy=0;entryPerimeter=0;" edge="1" parent="1" source="x1Jo5kKZt7iRQHBq_oOY-35" target="x1Jo5kKZt7iRQHBq_oOY-12">
          <mxGeometry width="160" relative="1" as="geometry">
            <mxPoint x="330" y="470" as="sourcePoint" />
            <mxPoint x="490" y="470" as="targetPoint" />
          </mxGeometry>
        </mxCell>
        <mxCell id="x1Jo5kKZt7iRQHBq_oOY-42" value="LlantasBuenas" style="swimlane;fontStyle=1;align=center;verticalAlign=top;childLayout=stackLayout;horizontal=1;startSize=26;horizontalStack=0;resizeParent=1;resizeParentMax=0;resizeLast=0;collapsible=1;marginBottom=0;whiteSpace=wrap;html=1;" vertex="1" parent="1">
          <mxGeometry x="640" y="280" width="160" height="34" as="geometry" />
        </mxCell>
        <mxCell id="x1Jo5kKZt7iRQHBq_oOY-44" value="" style="line;strokeWidth=1;fillColor=none;align=left;verticalAlign=middle;spacingTop=-1;spacingLeft=3;spacingRight=3;rotatable=0;labelPosition=right;points=[];portConstraint=eastwest;strokeColor=inherit;" vertex="1" parent="x1Jo5kKZt7iRQHBq_oOY-42">
          <mxGeometry y="26" width="160" height="8" as="geometry" />
        </mxCell>
        <mxCell id="x1Jo5kKZt7iRQHBq_oOY-46" value="LlantasBonitas" style="swimlane;fontStyle=1;align=center;verticalAlign=top;childLayout=stackLayout;horizontal=1;startSize=26;horizontalStack=0;resizeParent=1;resizeParentMax=0;resizeLast=0;collapsible=1;marginBottom=0;whiteSpace=wrap;html=1;" vertex="1" parent="1">
          <mxGeometry x="650" y="410" width="160" height="34" as="geometry" />
        </mxCell>
        <mxCell id="x1Jo5kKZt7iRQHBq_oOY-48" value="" style="line;strokeWidth=1;fillColor=none;align=left;verticalAlign=middle;spacingTop=-1;spacingLeft=3;spacingRight=3;rotatable=0;labelPosition=right;points=[];portConstraint=eastwest;strokeColor=inherit;" vertex="1" parent="x1Jo5kKZt7iRQHBq_oOY-46">
          <mxGeometry y="26" width="160" height="8" as="geometry" />
        </mxCell>
        <mxCell id="x1Jo5kKZt7iRQHBq_oOY-50" value="LlantasBaratas" style="swimlane;fontStyle=1;align=center;verticalAlign=top;childLayout=stackLayout;horizontal=1;startSize=26;horizontalStack=0;resizeParent=1;resizeParentMax=0;resizeLast=0;collapsible=1;marginBottom=0;whiteSpace=wrap;html=1;" vertex="1" parent="1">
          <mxGeometry x="610" y="536" width="160" height="34" as="geometry" />
        </mxCell>
        <mxCell id="x1Jo5kKZt7iRQHBq_oOY-52" value="" style="line;strokeWidth=1;fillColor=none;align=left;verticalAlign=middle;spacingTop=-1;spacingLeft=3;spacingRight=3;rotatable=0;labelPosition=right;points=[];portConstraint=eastwest;strokeColor=inherit;" vertex="1" parent="x1Jo5kKZt7iRQHBq_oOY-50">
          <mxGeometry y="26" width="160" height="8" as="geometry" />
        </mxCell>
        <mxCell id="x1Jo5kKZt7iRQHBq_oOY-54" value="" style="endArrow=open;endFill=1;endSize=12;html=1;rounded=0;exitX=0;exitY=0.5;exitDx=0;exitDy=0;entryX=1.005;entryY=0.186;entryDx=0;entryDy=0;entryPerimeter=0;" edge="1" parent="1" target="x1Jo5kKZt7iRQHBq_oOY-16">
          <mxGeometry width="160" relative="1" as="geometry">
            <mxPoint x="640" y="319" as="sourcePoint" />
            <mxPoint x="650" y="290" as="targetPoint" />
          </mxGeometry>
        </mxCell>
        <mxCell id="x1Jo5kKZt7iRQHBq_oOY-55" value="" style="endArrow=open;endFill=1;endSize=12;html=1;rounded=0;exitX=-0.019;exitY=0.769;exitDx=0;exitDy=0;exitPerimeter=0;entryX=1;entryY=0.5;entryDx=0;entryDy=0;" edge="1" parent="1" target="x1Jo5kKZt7iRQHBq_oOY-17">
          <mxGeometry width="160" relative="1" as="geometry">
            <mxPoint x="646.96" y="455.994" as="sourcePoint" />
            <mxPoint x="670" y="500" as="targetPoint" />
          </mxGeometry>
        </mxCell>
        <mxCell id="x1Jo5kKZt7iRQHBq_oOY-56" value="" style="endArrow=open;endFill=1;endSize=12;html=1;rounded=0;exitX=0;exitY=0.5;exitDx=0;exitDy=0;entryX=0.925;entryY=1.192;entryDx=0;entryDy=0;entryPerimeter=0;" edge="1" parent="1" target="x1Jo5kKZt7iRQHBq_oOY-19">
          <mxGeometry width="160" relative="1" as="geometry">
            <mxPoint x="610" y="575" as="sourcePoint" />
            <mxPoint x="580" y="680" as="targetPoint" />
          </mxGeometry>
        </mxCell>
        <mxCell id="x1Jo5kKZt7iRQHBq_oOY-57" value="ConfiguracionCarro" style="swimlane;fontStyle=1;align=center;verticalAlign=top;childLayout=stackLayout;horizontal=1;startSize=26;horizontalStack=0;resizeParent=1;resizeParentMax=0;resizeLast=0;collapsible=1;marginBottom=0;whiteSpace=wrap;html=1;" vertex="1" parent="1">
          <mxGeometry x="550" y="28" width="160" height="86" as="geometry" />
        </mxCell>
        <mxCell id="x1Jo5kKZt7iRQHBq_oOY-58" value="+ field: type" style="text;strokeColor=none;fillColor=none;align=left;verticalAlign=top;spacingLeft=4;spacingRight=4;overflow=hidden;rotatable=0;points=[[0,0.5],[1,0.5]];portConstraint=eastwest;whiteSpace=wrap;html=1;" vertex="1" parent="x1Jo5kKZt7iRQHBq_oOY-57">
          <mxGeometry y="26" width="160" height="26" as="geometry" />
        </mxCell>
        <mxCell id="x1Jo5kKZt7iRQHBq_oOY-59" value="" style="line;strokeWidth=1;fillColor=none;align=left;verticalAlign=middle;spacingTop=-1;spacingLeft=3;spacingRight=3;rotatable=0;labelPosition=right;points=[];portConstraint=eastwest;strokeColor=inherit;" vertex="1" parent="x1Jo5kKZt7iRQHBq_oOY-57">
          <mxGeometry y="52" width="160" height="8" as="geometry" />
        </mxCell>
        <mxCell id="x1Jo5kKZt7iRQHBq_oOY-60" value="+ method(type): type" style="text;strokeColor=none;fillColor=none;align=left;verticalAlign=top;spacingLeft=4;spacingRight=4;overflow=hidden;rotatable=0;points=[[0,0.5],[1,0.5]];portConstraint=eastwest;whiteSpace=wrap;html=1;" vertex="1" parent="x1Jo5kKZt7iRQHBq_oOY-57">
          <mxGeometry y="60" width="160" height="26" as="geometry" />
        </mxCell>
      </root>
    </mxGraphModel>
  </diagram>
</mxfile>
